<?xml version="1.0" encoding="UTF-8"?><svg id="Layer_1" xmlns="http://www.w3.org/2000/svg" viewBox="0 0 1037.05 148.54"><polyline points="0 147.73 0 31.09 13.29 31.09 13.29 0 100.14 0 100.14 31.11 113.39 31.11 113.39 147.73"/><rect x="71.48" y="84.4" width="17.49" height="17.49" style="fill:#fff;"/><rect x="71.48" y="48.28" width="17.49" height="17.49" style="fill:#fff;"/><rect x="24.75" y="48.28" width="17.49" height="17.49" style="fill:#fff;"/><rect x="54.5" y="126.62" width="62.66" height="2.91" transform="translate(33.08 -16.79) rotate(13.82)" style="fill:#fff; stroke:#000; stroke-miterlimit:10; stroke-width:.7px;"/><path d="m61.33,123.86l9.44-.87.23,2.46-6.5.6.26,2.87,5.85-.54.22,2.4-5.85.54.29,3.14,6.5-.6.23,2.46-9.44.87-1.22-13.33Z" style="fill:#fff;"/><path d="m72.86,133.06c-.19-2.02,1.07-3.02,4.17-3.57l2.81-.51c-.15-1.44-.75-1.99-2.33-1.84s-1.9.87-1.8,1.91l-2.83.28c-.2-2.19.53-4.04,4.37-4.39,4.44-.41,5.24,1.49,5.5,4.33l.55,6.04-1.21.11-.8-1.65c-.53,1.04-1.7,2.05-3.87,2.24-2.37.22-4.34-.65-4.55-2.94Zm5.04.65c1.94-.18,2.22-1.42,2.12-2.82l-2.37.49c-1.46.3-1.87.7-1.82,1.26.07.73.68,1.2,2.07,1.07Z" style="fill:#fff;"/><path d="m84.41,131.41l2.81-.26c.1,1.1,1.01,1.63,2.53,1.49,1.31-.12,2-.65,1.94-1.27-.18-1.96-7.05.08-7.4-3.69-.2-2.23,1.38-3.53,4.44-3.81,3.12-.29,4.87.86,5.1,3.33l-2.67.24c-.23-1.13-.79-1.54-2.31-1.41-1.44.13-1.83.69-1.78,1.23.17,1.87,7.05-.33,7.42,3.71.19,2.04-1.6,3.59-4.48,3.86-3.5.32-5.37-.81-5.61-3.43Z" style="fill:#fff;"/><path d="m96.36,135.02l2.85-.26c.16.8.35,1.25,2.3,1.07,1.85-.17,2.1-.95,2-1.99l-.14-1.52c-.44.71-1.21,1.41-2.88,1.57-3.35.31-4.28-1.5-4.55-4.5l-.55-5.96,2.83-.26.57,6.21c.14,1.5.52,2.22,2.31,2.06,1.77-.16,2.09-1.05,1.95-2.59l-.56-6.06,2.85-.26.99,10.83c.19,2.06-.37,4.24-4.66,4.63-4.02.37-5.14-.87-5.33-2.96Z" style="fill:#fff;"/><rect x="24.75" y="120.53" width="17.49" height="17.49" style="fill:#fff;"/><rect x="25.13" y="84.4" width="17.49" height="17.49" style="fill:#fff;"/><rect x="16.26" y="91.8" width="34.46" height="2.91" transform="translate(-56.13 51) rotate(-45)" style="stroke:#fff; stroke-miterlimit:10; stroke-width:.52px;"/><rect x="16.26" y="91.8" width="34.46" height="2.91" transform="translate(-8.76 182.89) rotate(-135)" style="stroke:#fff; stroke-miterlimit:10; stroke-width:.52px;"/><rect x="25.13" y="13.22" width="17.49" height="17.49" style="fill:#fff;"/><rect x="16.26" y="20.62" width="34.46" height="2.91" transform="translate(-5.8 30.15) rotate(-45)" style="stroke:#fff; stroke-miterlimit:10; stroke-width:.52px;"/><rect x="16.26" y="20.62" width="34.46" height="2.91" transform="translate(41.57 61.38) rotate(-135)" style="stroke:#fff; stroke-miterlimit:10; stroke-width:.52px;"/><rect x="71.87" y="13.22" width="17.49" height="17.49" style="fill:#fff;"/><rect x="63" y="20.62" width="34.46" height="2.91" transform="translate(7.89 63.2) rotate(-45)" style="stroke:#fff; stroke-miterlimit:10; stroke-width:.52px;"/><rect x="63" y="20.62" width="34.46" height="2.91" transform="translate(121.35 94.42) rotate(-135)" style="stroke:#fff; stroke-miterlimit:10; stroke-width:.52px;"/><path d="m146.37,105.15h25.13c.53,11.86,6.72,21.6,26.01,21.6,15.22,0,21.42-6.02,21.42-13.45,0-24.78-70.09-6.9-70.09-49.38,0-17.52,12.03-32.92,45.84-32.92,35.93,0,47.07,17.34,47.43,40h-24.96c-1.42-11.51-5.31-19.12-23.01-19.12-16.46,0-20.36,6.02-20.36,11.51,0,23.18,69.73,4.77,69.73,48.32,0,16.46-9.91,35.4-47.79,35.4-35.22,0-49.38-16.46-49.38-41.95Z"/><path d="m267.79,115.6v-40.71h-13.27v-12.04l13.27-7.43v-23.48h23.54v23.13h23.89v19.82h-23.18v40.53c0,10.08,6.2,12.56,23.18,11.33v19.82c-32.21,2.65-47.43-3.01-47.43-30.97Z"/><path d="m328.32,55.07h10.09l5.66,14.34c5.67-12.03,15.93-17.88,33.1-15.4v21.77c-21.06-2.3-24.6,11.15-24.6,23.9v46.02h-24.25V55.07Z"/><path d="m383.19,100.38c0-22.65,7.43-46.72,44.07-46.72,34.51,0,44.78,27.61,42.12,56.28h-61.42c.71,12.92,8.85,18.41,19.47,18.41s15.39-4.78,16.46-10.09h25.66c-1.59,15.22-12.03,28.85-41.24,28.85-37.16,0-45.13-23.36-45.13-46.72Zm61.24-9.03c-.35-11.68-5.49-18.76-18.41-18.76-12.21,0-17.52,7.08-18.05,18.76h36.46Z"/><path d="m480.01,100.38c0-22.65,7.43-46.72,44.07-46.72,34.51,0,44.78,27.61,42.12,56.28h-61.42c.71,12.92,8.85,18.41,19.47,18.41s15.39-4.78,16.46-10.09h25.66c-1.59,15.22-12.03,28.85-41.24,28.85-37.16,0-45.13-23.36-45.13-46.72Zm61.24-9.03c-.35-11.68-5.49-18.76-18.41-18.76-12.21,0-17.52,7.08-18.05,18.76h36.46Z"/><path d="m584.97,115.6v-40.71h-13.27v-12.04l13.27-7.43v-23.48h23.54v23.13h23.89v19.82h-23.18v40.53c0,10.08,6.2,12.56,23.18,11.33v19.82c-32.21,2.65-47.43-3.01-47.43-30.97Z"/><path d="m677.74,33.38h25.31v45.78h45.84v-45.78h25.31v113.74h-25.31v-47.61h-45.84v47.61h-25.31V33.38Z"/><path d="m790.14,120.22c0-17.17,11.33-24.6,37.88-26.9l24.07-2.12c-.18-12.21-4.78-17.34-18.23-17.34s-16.64,5.84-16.64,14.69l-24.07.18c0-18.58,7.61-33.62,40.17-33.62,37.7,0,43.01,16.64,43.01,40.71v51.33h-10.27l-5.49-14.51c-5.31,8.32-15.93,15.93-34.33,15.93-20.17,0-36.1-8.85-36.1-28.32Zm41.94,9.38c16.46,0,19.82-10.26,20-22.12l-20.35,2.3c-12.57,1.42-16.29,4.42-16.29,9.2,0,6.2,4.78,10.62,16.64,10.62Z"/><path d="m893.68,56.51h10.09l5.66,14.34c5.67-12.03,15.93-17.88,33.1-15.4v21.77c-21.06-2.3-24.6,11.15-24.6,23.9v46.02h-24.25V56.51Z"/><path d="m947.32,101.81c0-24.07,9.73-46.72,38.41-46.72,15.39,0,23.36,5.84,27.08,11.33V21.99h24.25v125.13h-10.27l-5.48-14.51c-5.84,9.03-14.87,15.93-35.05,15.93-28.49,0-38.93-22.83-38.93-46.72Zm45.84,26.55c16.99,0,20.17-10.62,20.17-26.55,0-15.04-2.65-26.2-20-26.2s-21.24,10.62-21.24,26.2,4.42,26.55,21.06,26.55Z"/></svg>