<?xml version="1.0" encoding="UTF-8"?><svg id="Layer_1" xmlns="http://www.w3.org/2000/svg" viewBox="0 0 1728 2592"><defs><style>.cls-1,.cls-2{fill:#fff;}.cls-3{stroke:#fff;stroke-width:.74px;}.cls-3,.cls-4,.cls-2{stroke-miterlimit:10;}.cls-4{fill:none;stroke-width:2px;}.cls-4,.cls-2{stroke:#000;}</style></defs><polyline points="685.73 771.77 685.73 605.09 704.71 605.09 704.71 560.66 828.83 560.66 828.83 605.12 847.76 605.12 847.76 771.77"/><path d="m685.16,791.48h4.54c.1,2.14,1.22,3.9,4.7,3.9,2.75,0,3.87-1.09,3.87-2.43,0-4.48-12.67-1.25-12.67-8.93,0-3.17,2.18-5.95,8.29-5.95,6.5,0,8.51,3.14,8.58,7.23h-4.51c-.26-2.08-.96-3.46-4.16-3.46-2.98,0-3.68,1.09-3.68,2.08,0,4.19,12.61.86,12.61,8.74,0,2.98-1.79,6.4-8.64,6.4-6.37,0-8.93-2.98-8.93-7.58Z"/><path d="m707.11,793.37v-7.36h-2.4v-2.18l2.4-1.34v-4.24h4.26v4.18h4.32v3.58h-4.19v7.33c0,1.82,1.12,2.27,4.19,2.05v3.58c-5.82.48-8.58-.54-8.58-5.6Z"/><path d="m718.05,782.43h1.82l1.02,2.59c1.02-2.18,2.88-3.23,5.98-2.78v3.94c-3.81-.42-4.45,2.02-4.45,4.32v8.32h-4.38v-16.38Z"/><path d="m727.97,790.62c0-4.1,1.34-8.45,7.97-8.45,6.24,0,8.1,4.99,7.62,10.17h-11.1c.13,2.34,1.6,3.33,3.52,3.33s2.78-.86,2.98-1.82h4.64c-.29,2.75-2.18,5.22-7.46,5.22-6.72,0-8.16-4.22-8.16-8.45Zm11.07-1.63c-.06-2.11-.99-3.39-3.33-3.39-2.21,0-3.17,1.28-3.26,3.39h6.59Z"/><path d="m745.48,790.62c0-4.1,1.34-8.45,7.97-8.45,6.24,0,8.1,4.99,7.62,10.17h-11.1c.13,2.34,1.6,3.33,3.52,3.33s2.78-.86,2.98-1.82h4.64c-.29,2.75-2.18,5.22-7.46,5.22-6.72,0-8.16-4.22-8.16-8.45Zm11.07-1.63c-.06-2.11-.99-3.39-3.33-3.39-2.21,0-3.17,1.28-3.26,3.39h6.59Z"/><path d="m764.45,793.37v-7.36h-2.4v-2.18l2.4-1.34v-4.24h4.26v4.18h4.32v3.58h-4.19v7.33c0,1.82,1.12,2.27,4.19,2.05v3.58c-5.82.48-8.58-.54-8.58-5.6Z"/><path d="m782.82,778.25h4.58v8.28h8.29v-8.28h4.58v20.56h-4.58v-8.61h-8.29v8.61h-4.58v-20.56Z"/><path d="m803.14,793.95c0-3.1,2.05-4.45,6.85-4.86l4.35-.38c-.03-2.21-.86-3.14-3.3-3.14s-3.01,1.06-3.01,2.66l-4.35.03c0-3.36,1.38-6.08,7.26-6.08,6.82,0,7.78,3.01,7.78,7.36v9.28h-1.86l-.99-2.62c-.96,1.5-2.88,2.88-6.21,2.88-3.65,0-6.53-1.6-6.53-5.12Zm7.58,1.7c2.98,0,3.58-1.86,3.62-4l-3.68.42c-2.27.26-2.94.8-2.94,1.66,0,1.12.86,1.92,3.01,1.92Z"/><path d="m821.86,782.43h1.82l1.02,2.59c1.02-2.18,2.88-3.23,5.98-2.78v3.94c-3.81-.42-4.45,2.02-4.45,4.32v8.32h-4.38v-16.38Z"/><path d="m831.56,790.62c0-4.35,1.76-8.45,6.94-8.45,2.78,0,4.22,1.06,4.9,2.05v-8.03h4.38v22.62h-1.86l-.99-2.62c-1.06,1.63-2.69,2.88-6.34,2.88-5.15,0-7.04-4.13-7.04-8.45Zm8.29,4.8c3.07,0,3.65-1.92,3.65-4.8,0-2.72-.48-4.74-3.62-4.74s-3.84,1.92-3.84,4.74.8,4.8,3.81,4.8Z"/><rect class="cls-1" x="787.88" y="681.27" width="25" height="25"/><rect class="cls-1" x="787.88" y="629.65" width="25" height="25"/><rect class="cls-1" x="721.09" y="629.65" width="25" height="25"/><rect class="cls-2" x="763.61" y="741.6" width="89.54" height="4.16" transform="translate(201.06 -171.58) rotate(13.82)"/><path class="cls-1" d="m773.36,737.66l13.48-1.24.32,3.51-9.29.85.38,4.11,8.36-.77.31,3.42-8.36.77.41,4.49,9.29-.85.32,3.51-13.48,1.24-1.75-19.05Z"/><path class="cls-1" d="m789.85,750.8c-.26-2.89,1.53-4.31,5.95-5.11l4.01-.73c-.22-2.05-1.07-2.84-3.33-2.64s-2.71,1.24-2.57,2.73l-4.04.4c-.29-3.12.76-5.77,6.24-6.28,6.34-.58,7.49,2.14,7.86,6.18l.79,8.63-1.73.16-1.15-2.36c-.76,1.48-2.43,2.92-5.53,3.21-3.39.31-6.21-.93-6.51-4.21Zm7.2.93c2.77-.25,3.18-2.03,3.02-4.03l-3.39.7c-2.09.43-2.67,1-2.6,1.8.1,1.04.97,1.71,2.96,1.53Z"/><path class="cls-1" d="m806.36,748.44l4.02-.37c.14,1.58,1.44,2.33,3.62,2.13,1.87-.17,2.86-.92,2.78-1.81-.26-2.8-10.08.11-10.57-5.27-.29-3.19,1.97-5.04,6.34-5.44,4.46-.41,6.96,1.22,7.28,4.77l-3.81.35c-.33-1.62-1.13-2.21-3.31-2.01-2.05.19-2.61.99-2.54,1.76.25,2.68,10.07-.47,10.6,5.3.27,2.92-2.29,5.13-6.4,5.51-5,.46-7.67-1.16-8.01-4.91Z"/><path class="cls-1" d="m823.43,753.6l4.08-.37c.23,1.15.49,1.79,3.29,1.53,2.65-.24,3-1.36,2.86-2.84l-.2-2.17c-.63,1.02-1.74,2.02-4.12,2.24-4.79.44-6.11-2.14-6.5-6.43l-.78-8.51,4.05-.37.81,8.87c.2,2.14.74,3.17,3.3,2.94,2.53-.23,2.98-1.5,2.78-3.71l-.79-8.66,4.08-.37,1.42,15.48c.27,2.95-.52,6.05-6.66,6.61-5.75.53-7.35-1.25-7.62-4.22Z"/><rect class="cls-1" x="721.09" y="732.89" width="25" height="25"/><rect class="cls-1" x="721.64" y="681.27" width="25" height="25"/><rect class="cls-3" x="708.97" y="691.85" width="49.25" height="4.16" transform="translate(-275.82 721.97) rotate(-45)"/><rect class="cls-3" x="708.97" y="691.85" width="49.25" height="4.16" transform="translate(761.64 1703.33) rotate(-135)"/><rect class="cls-1" x="721.64" y="579.56" width="25" height="25"/><rect class="cls-3" x="708.97" y="590.13" width="49.25" height="4.16" transform="translate(-203.89 692.18) rotate(-45)"/><rect class="cls-3" x="708.97" y="590.13" width="49.25" height="4.16" transform="translate(833.56 1529.7) rotate(-135)"/><rect class="cls-1" x="788.43" y="579.56" width="25" height="25"/><rect class="cls-3" x="775.75" y="590.13" width="49.25" height="4.16" transform="translate(-184.33 739.4) rotate(-45)"/><rect class="cls-3" x="775.75" y="590.13" width="49.25" height="4.16" transform="translate(947.57 1576.92) rotate(-135)"/><line class="cls-4" x1="673.5" y1="807.3" x2="864" y2="807.3"/></svg>